<?xml version="1.0" encoding="utf-8"?>
<!-- Generator: Adobe Illustrator 18.1.0, SVG Export Plug-In . SVG Version: 6.00 Build 0)  -->
<!DOCTYPE svg PUBLIC "-//W3C//DTD SVG 1.1//EN" "http://www.w3.org/Graphics/SVG/1.1/DTD/svg11.dtd">
<svg version="1.1" id="VERSION_1_copy" xmlns="http://www.w3.org/2000/svg" xmlns:xlink="http://www.w3.org/1999/xlink" x="0px"
	 y="0px" width="372px" height="345px"  viewBox="0 0 372 345" enable-background="new 0 0 372 345" xml:space="preserve">
<polygon fill="#6BAE44" points="146.5,69.6 130.3,63.7 120,78.3 121,61.3 103.6,55.9 119.9,51.4 119.8,33.3 130.7,47.7 146.3,41.8 
	136.6,55.6 "/>
<polygon fill="#6BAE44" points="76.2,109.6 71.5,109.4 69.9,114 68.8,109.5 63.8,109.4 67.7,107 66.2,102.2 70.3,105.1 73.9,102.3 
	72.5,106.7 "/>
<g>
	<path fill="#FFFFFF" d="M48.7,139.3h10.6l24.4,32.1v-32.1h11.3v52.1h-9.8L60,158.3v33.1H48.7V139.3z"/>
	<path fill="#FFFFFF" d="M96,171.7v-0.1c0-11.4,8.1-20.8,19.7-20.8c13.3,0,19.4,10.4,19.4,21.7c0,0.9-0.1,1.9-0.1,3h-27.8
		c1.1,5.1,4.7,7.8,9.8,7.8c3.8,0,6.6-1.2,9.7-4.1l6.5,5.7c-3.7,4.6-9.1,7.4-16.3,7.4C104.8,192.3,96,183.9,96,171.7z M124.1,168.3
		c-0.7-5.1-3.7-8.5-8.4-8.5c-4.7,0-7.7,3.4-8.6,8.5H124.1z"/>
	<path fill="#FFFFFF" d="M131,151.5h11.5l6.4,24.2l7.5-24.4h9.8l7.6,24.4l6.6-24.3h11.2l-12.4,40.2h-10.2l-7.7-24.5l-7.8,24.5h-10.1
		L131,151.5z"/>
</g>
<g>
	<path fill="#FFFFFF" d="M76.9,239.7l7.2-8c3,3.3,5.9,5.2,9.5,5.2c4.3,0,7-2.6,7-8.6v-33.6h11.8v34.1c0,6.2-1.8,10.8-4.9,13.9
		c-3.2,3.2-7.9,4.8-13.6,4.8C85.8,247.5,80.5,243.9,76.9,239.7z"/>
	<path fill="#FFFFFF" d="M112.9,227v-0.1c0-11.4,8.1-20.8,19.7-20.8c13.3,0,19.4,10.4,19.4,21.7c0,0.9-0.1,1.9-0.1,3h-27.8
		c1.1,5.1,4.7,7.8,9.8,7.8c3.8,0,6.6-1.2,9.7-4.1l6.5,5.7c-3.7,4.6-9.1,7.4-16.3,7.4C121.7,247.7,112.9,239.2,112.9,227z M141,223.7
		c-0.7-5.1-3.7-8.5-8.4-8.5c-4.7,0-7.7,3.4-8.6,8.5H141z"/>
	<path fill="#FFFFFF" d="M153,206.8h11.3v8c2.3-5.5,6-9.1,12.7-8.8v11.8h-0.6c-7.5,0-12.1,4.5-12.1,14.1v14.7H153V206.8z"/>
	<path fill="#FFFFFF" d="M175.1,241.5l4.8-7.4c4.3,3.1,8.9,4.8,12.6,4.8c3.3,0,4.8-1.2,4.8-3v-0.1c0-2.5-3.9-3.3-8.3-4.6
		c-5.6-1.6-11.9-4.2-11.9-12v-0.1c0-8.1,6.6-12.7,14.6-12.7c5.1,0,10.6,1.7,14.9,4.6l-4.3,7.8c-3.9-2.3-7.9-3.7-10.8-3.7
		c-2.8,0-4.2,1.2-4.2,2.8v0.1c0,2.2,3.8,3.3,8.1,4.8c5.6,1.9,12.1,4.5,12.1,11.8v0.1c0,8.9-6.6,12.9-15.3,12.9
		C186.6,247.5,180.4,245.6,175.1,241.5z"/>
	<path fill="#FFFFFF" d="M207.4,227v-0.1c0-11.4,8.1-20.8,19.7-20.8c13.3,0,19.4,10.4,19.4,21.7c0,0.9-0.1,1.9-0.1,3h-27.8
		c1.1,5.1,4.7,7.8,9.8,7.8c3.8,0,6.6-1.2,9.7-4.1l6.5,5.7c-3.7,4.6-9.1,7.4-16.3,7.4C216.3,247.7,207.4,239.2,207.4,227z
		 M235.6,223.7c-0.7-5.1-3.6-8.5-8.4-8.5c-4.7,0-7.7,3.4-8.6,8.5H235.6z"/>
	<path fill="#FFFFFF" d="M270.9,206.8h11.8l-15.3,40.9c-3.1,8.1-6.3,11.2-13.1,11.2c-4.1,0-7.2-1-10.1-2.8l3.8-8.2
		c1.5,0.9,3.4,1.6,4.8,1.6c1.9,0,3-0.6,3.9-2.6l-15.6-40.1h12l9.1,27.2L270.9,206.8z"/>
</g>
<g>
	<path fill="#FFFFFF" d="M48.7,250.8h11.5v41.7h26v10.4H48.7V250.8z"/>
	<path fill="#FFFFFF" d="M82.5,283.2V283c0-11.5,9.2-20.8,21.7-20.8c12.4,0,21.5,9.2,21.5,20.6v0.1c0,11.5-9.2,20.8-21.7,20.8
		C91.7,303.8,82.5,294.7,82.5,283.2z M114.6,283.2V283c0-5.9-4.2-11-10.5-11c-6.5,0-10.4,5-10.4,10.9v0.1c0,5.9,4.2,11,10.5,11
		C110.7,294.1,114.6,289.1,114.6,283.2z"/>
	<path fill="#FFFFFF" d="M127.6,291.6v-18.9h-4.8V263h4.8v-10.2h11.3V263h9.4v9.7h-9.4v17.1c0,2.6,1.1,3.9,3.6,3.9
		c2.1,0,3.9-0.5,5.6-1.4v9.1c-2.4,1.4-5.1,2.3-8.9,2.3C132.3,303.6,127.6,300.8,127.6,291.6z"/>
	<path fill="#FFFFFF" d="M154.1,291.6v-18.9h-4.8V263h4.8v-10.2h11.3V263h9.4v9.7h-9.4v17.1c0,2.6,1.1,3.9,3.6,3.9
		c2.1,0,3.9-0.5,5.6-1.4v9.1c-2.4,1.4-5.1,2.3-8.9,2.3C158.7,303.6,154.1,300.8,154.1,291.6z"/>
	<path fill="#FFFFFF" d="M172.6,283.2V283c0-11.4,8.1-20.8,19.7-20.8c13.3,0,19.4,10.4,19.4,21.7c0,0.9-0.1,1.9-0.1,3h-27.8
		c1.1,5.1,4.7,7.8,9.8,7.8c3.8,0,6.6-1.2,9.7-4.1l6.5,5.7c-3.7,4.6-9.1,7.4-16.3,7.4C181.5,303.8,172.6,295.4,172.6,283.2z
		 M200.8,279.8c-0.7-5.1-3.7-8.5-8.4-8.5c-4.7,0-7.7,3.4-8.6,8.5H200.8z"/>
	<path fill="#FFFFFF" d="M212.2,263h11.3v8c2.3-5.5,6-9.1,12.7-8.8v11.8h-0.6c-7.5,0-12.1,4.5-12.1,14.1v14.7h-11.3V263z"/>
	<path fill="#FFFFFF" d="M266,262.2h11.8l-15.3,40.9c-3.1,8.1-6.3,11.2-13.1,11.2c-4.1,0-7.2-1-10.1-2.8l3.8-8.2
		c1.5,0.9,3.4,1.6,4.8,1.6c1.9,0,3-0.6,3.9-2.6l-15.6-40.1h12l9.1,27.2L266,262.2z"/>
</g>
<radialGradient id="SVGID_1_" cx="285.7081" cy="96.492" r="115.1621" gradientTransform="matrix(0.9419 -0.336 0.3427 0.9607 -16.4592 99.7884)" gradientUnits="userSpaceOnUse">
	<stop  offset="0.3348" style="stop-color:#FFFFFF"/>
	<stop  offset="0.5968" style="stop-color:#FFFFFF"/>
	<stop  offset="0.6574" style="stop-color:#FCFCFC"/>
	<stop  offset="0.6998" style="stop-color:#F3F3F3"/>
	<stop  offset="0.7366" style="stop-color:#E4E4E4"/>
	<stop  offset="0.7702" style="stop-color:#CECECE"/>
	<stop  offset="0.8017" style="stop-color:#B1B1B1"/>
	<stop  offset="0.8312" style="stop-color:#8F8F8F"/>
	<stop  offset="0.8593" style="stop-color:#676767"/>
	<stop  offset="0.8598" style="stop-color:#666666"/>
	<stop  offset="0.9239" style="stop-color:#E9E9EA"/>
	<stop  offset="1" style="stop-color:#DCDDDE"/>
</radialGradient>
<circle fill="url(#SVGID_1_)" cx="272.7" cy="113.5" r="84.5"/>
<radialGradient id="SVGID_2_" cx="282.4238" cy="105.961" r="68.4166" gradientTransform="matrix(0.9361 0 0 0.9439 35.2447 0.5978)" gradientUnits="userSpaceOnUse">
	<stop  offset="1.866902e-02" style="stop-color:#D7DF23"/>
	<stop  offset="0.3263" style="stop-color:#8DC63F"/>
	<stop  offset="0.4233" style="stop-color:#88C13F"/>
	<stop  offset="0.5423" style="stop-color:#79B43F"/>
	<stop  offset="0.6724" style="stop-color:#609E3F"/>
	<stop  offset="0.7159" style="stop-color:#56953F"/>
	<stop  offset="0.8595" style="stop-color:#2C7F3C"/>
	<stop  offset="1" style="stop-color:#006838"/>
</radialGradient>
<path fill="url(#SVGID_2_)" d="M309.4,91.9c10.7,0.1,20.4,1.6,26-0.1c5.3-1.6,6.2-3.5,5.6-5.6c-7.7-25.7-30.8-41.5-41.7-37.1
	c-2.7,1.1-3.3,6.9-3.3,6.9s0,17.6,0.9,32.9c-1.4-12.2-6.9-42.5-27.8-42.5c-14.9,0-44.7,19.7-46.7,37.2
	c-1.7,14.9,10.6,14.3,16.2,13.9c6.1-0.4,23.1-3,43.7-4.8c-23.2,6.7-38.7,15.3-47.5,25.2c-10.8,12.1,6.5,45.1,24.5,46.8
	c18,1.7,32-21.2,33.5-22.2c-7.9,27.4-20.5,33.6-20.5,33.6c4,4.8,9.2,3.1,10.9,2.7c8.3-4.4,12.5-23.4,14.5-38.4
	c1.1,8.7,16.7,23.9,30.1,15.5c17-12.8,19-29.7,17.4-40.2C343.1,103.6,330.7,97.2,309.4,91.9z"/>
<path fill="#FFFFFF" d="M282.6,78.2l-0.7-2.9l3.7-4.4l1-2.6l2.9-2.3l2.1,0.7l15.1,8.5l0.2,3.5l-2.2,6.2l-0.8,0.3l-0.7-0.3l0.2-0.2
	l0.5-2.2l-0.1-0.7l-0.1,0.8l-0.8,1.9l-0.3,2.1l-0.8,1.8l-0.7,0.3l-0.6-0.6l-0.2,0.5l2,1.9l1.7,0.6l0.2-0.3l0.5,0l1,1l0.5-0.3
	l-0.1-0.7l-0.6-1.4l1,0c0,0,3.4,4.3,0.4,14.2l-0.8-0.4l-0.3-0.9l-0.3,0l-0.4,7.5l-0.7,0.7l-0.8,4.5L302,117l-0.1,1.4l-1,0.3
	l-0.6-0.8l-0.8,1.4l0.8,0.8l-0.9,1.3l0.7,0.4v0.3l0.6,0.4l-0.1,0.9l-1.3,1.5l-2.3,1.6l-3.1,3.2l-2.7,4.2l0,1l-1,1.3l-2.6,1.4l-1,0
	l1.4-2.4l0-1.3l1-1l0-2.1l-2.9-1.5l-2.1-0.1l-2.1-2.4l-1.1,0.1l-0.7,0.3l-5.9-5.3l-0.1-1.5l0.7-2.2l-0.6-1l0.8-3.5l1.2-1.5l0.8-0.1
	l1.9-1.9l0.7,0.2l2.6-1.4l1.8-3.3l1-0.2l2.4-2.6l1.7-0.7l2-1.4l-0.1-1.3l-1.7-1.8l-0.4-0.8l-1.5-1.4l-1.8-3.2l-0.2-0.7l-0.5,0.5
	l-1.1-0.1l-1-0.8l0-2.1l-0.3-1.3l-2.1-1.5l0.5-1.5l-0.8-3.1l1.6-0.6l0.1-1.7L282.6,78.2z"/>
<polygon fill="#FFFFFF" points="306.6,104.2 306.2,104.9 306.1,110.5 305,114.3 305.5,114.2 307.2,110.6 307.3,104.9 "/>
<polygon fill="#FFFFFF" points="305.3,115.1 304.3,115.1 303.5,116.9 302,119.6 301.7,120.4 301.7,121.3 302.1,121.4 302.4,120.7 
	302.7,119.7 "/>
<g>
	<path fill="#6BAE44" d="M130,90c-26.1,8.3-48.7,24.7-55.9,35.2c14-13.6,36.2-25.1,65.6-31L130,90z"/>
</g>
<polygon fill="#FFCF01" points="176.9,105.7 161.5,98.1 149.7,111.6 152.5,94.8 135.7,87.5 152.4,84.8 154.2,66.8 163.5,82.3 
	179.7,78 168.6,90.7 "/>
<polygon fill="#FFCF01" points="183.1,36.4 173.7,31 165.7,38.9 168.3,28.5 158.1,23.1 168.7,22.2 170.7,11 175.7,21.1 186.1,19.2 
	178.6,26.6 "/>
<polygon fill="#FFCF01" points="83.3,65.2 76.1,64 72.9,70.9 72,63.7 64.3,62.7 70.8,59.6 69.4,52 75,57.3 81.2,53.6 78.1,60.1 "/>
<polygon fill="#FFCF01" points="108.9,90.7 102.8,89.2 99.7,94.9 99.4,88.8 92.8,87.5 98.6,85.2 97.8,78.7 102.3,83.5 107.7,80.7 
	104.8,86 "/>
<g>
	<path fill="#6BAE44" d="M15,158.3c15.5-40.1,53.5-74.4,101.2-92l0.1-1.7l-11.2-3.5C60.9,82,23.8,123.5,15,158.3z"/>
	<path fill="#6BAE44" d="M197.8,52.9c0.8-0.8,1.7-1.6,2.5-2.4c3.1-3.6,6.5-6.9,10.1-10c-21.1-1.2-41.8,0.7-61.4,5.3l-6.9,9.8
		l1.8,2.5C161.3,54.2,179.3,52.4,197.8,52.9z"/>
</g>
<g>
	<path fill="#FFFFFF" d="M322.8,190.1H321v-1.2h5v1.2h-1.8v4.8h-1.3V190.1z"/>
	<path fill="#FFFFFF" d="M327,188.9h1.4l1.6,2.5l1.6-2.5h1.4v6h-1.3V191l-1.7,2.6h0l-1.7-2.5v3.9H327V188.9z"/>
</g>
</svg>
